<?xml version="1.0" standalone="no"?>
<!DOCTYPE svg PUBLIC "-//W3C//DTD SVG 20010904//EN"
 "http://www.w3.org/TR/2001/REC-SVG-20010904/DTD/svg10.dtd">
<svg version="1.0" xmlns="http://www.w3.org/2000/svg"
 width="300.000000pt" height="300.000000pt" viewBox="0 0 300.000000 300.000000"
 preserveAspectRatio="xMidYMid meet">
<metadata>
Created by potrace 1.11, written by Peter Selinger 2001-2013
</metadata>
<g transform="translate(0.000000,300.000000) scale(0.100000,-0.100000)"
fill="#000000" stroke="none">
<path d="M1142 2620 c-188 -44 -308 -156 -366 -339 -33 -105 -37 -135 -41
-301 -3 -131 2 -192 29 -336 20 -105 117 -339 163 -393 37 -44 88 -17 124 65
24 58 25 109 1 126 -29 20 -50 58 -77 137 -32 94 -40 159 -39 311 2 351 149
521 452 520 91 0 245 -21 300 -41 98 -35 194 -110 237 -184 97 -165 70 -446
-56 -598 -75 -91 -193 -157 -289 -161 -38 -2 -46 -7 -56 -32 -14 -35 -10 -101
10 -148 16 -38 24 -42 119 -50 112 -11 206 -73 243 -161 23 -55 27 -176 8
-241 -16 -55 -58 -125 -96 -161 -39 -37 -128 -70 -178 -67 -103 5 -153 54
-189 182 -19 68 -20 106 -21 700 0 345 -4 640 -8 655 -18 67 -129 139 -184
118 -26 -10 -27 -12 -22 -73 3 -35 7 -349 8 -698 2 -349 6 -651 10 -670 36
-177 68 -253 136 -321 54 -54 91 -74 167 -89 293 -61 590 219 598 564 4 189
-81 332 -228 382 l-47 16 48 38 c198 159 295 376 288 645 -7 273 -141 453
-408 550 -182 66 -479 92 -636 55z"/>
</g>
</svg>
