<?xml version="1.0" encoding="UTF-8"?>
<svg width="526px" height="306px" viewBox="0 0 526 306" version="1.1" xmlns="http://www.w3.org/2000/svg" xmlns:xlink="http://www.w3.org/1999/xlink">
    <g id="Banners" stroke="none" stroke-width="1" fill="none" fill-rule="evenodd">
        <g id="bingo-banner-lg" transform="translate(-697.000000, -265.000000)" fill="#26114E">
            <g id="Page-1-Copy" transform="translate(697.000000, 265.000000)">
                <path d="M222.660512,70.7217799 C231.756369,68.978827 238.515517,60.1172972 238.515517,51.3593661 C238.515517,42.0585009 231.756369,36.3970213 222.660512,37.8934476 C214.083923,39.3092972 207.064179,47.3852031 207.064179,56.9258803 C207.064179,65.9207455 214.083923,72.3697674 222.660512,70.7217799" id="Fill-1"></path>
                <path d="M195.532663,87.7029574 C195.532663,34.1999605 160.400286,9.30652476 106.816561,2.10065643 C43.6484801,-6.99109279 0.00105776965,11.7046439 9.61608775e-05,92.3639417 C9.61608775e-05,142.580556 20.2275367,177.912525 25.9067982,185.852218 C36.1960121,198.980481 45.7784435,174.247239 45.7784435,166.885973 C45.7784435,162.752575 44.359109,159.462355 40.4559389,159.427823 C39.7462717,158.115572 26.9703375,140.516255 26.9703375,103.542055 C26.9703375,51.0098163 50.0374088,23.4007505 107.170433,31.9342176 C150.819778,36.5836909 168.207588,62.5840984 168.207588,92.0608194 C168.209511,147.501497 127.397873,164.279697 110.718769,163.091189 C100.071837,162.701735 106.105932,192.839377 112.493899,192.807722 C134.851303,193.036023 159.334824,199.707591 159.336747,234.067841 C159.336747,256.160274 144.431811,276.420544 124.560166,278.521296 C103.621135,280.599986 92.2674197,264.621797 92.2654965,226.153089 L92.2654965,77.4015969 C92.2674197,67.7640357 84.1043229,58.6185687 72.3938512,55.7369887 C67.4252186,54.5206627 63.167215,56.1321987 63.167215,60.2243492 C63.167215,63.085785 64.5865495,65.9280357 64.5865495,73.6787567 L64.5865495,221.814412 C64.5855879,271.344205 78.4250614,310.435465 124.914038,305.57112 C160.046414,300.973446 187.014732,264.689904 187.016656,227.553591 C187.016656,195.224067 170.33659,180.14949 149.755277,175.777239 C175.659094,157.691584 195.533624,128.260907 195.532663,87.7029574" id="Fill-3"></path>
                <path d="M388.230503,237.720752 C384.076353,238.708777 381.48001,233.624765 381.48001,226.209781 C381.470393,211.859436 387.191966,201.403636 395.509882,192.108527 L395.509882,217.41348 C395.509882,221.931536 396.548419,235.81185 388.230503,237.720752 M483.506701,99.5986834 C481.343081,91.6273354 486.228053,86.907837 489.084031,87.6368652 C491.968858,88.3946708 493.545896,91.8575549 494.382496,97.1430094 C489.16096,100.98 484.497158,102.745016 483.506701,99.5986834 M510.931783,76.9988088 C510.479827,79.5216301 508.527761,82.8118495 505.844872,86.1404389 C502.056134,79.9149216 497.219242,75.473605 491.949626,73.9771787 C487.180046,72.6438245 483.227834,73.0467085 480.083373,74.6966144 C473.957925,77.910094 470.890393,85.8622571 470.890393,95.080627 C470.890393,95.080627 470.94809,111.416614 480.083373,114.994608 C483.622094,116.375925 488.526298,115.848339 495.315256,111.704389 C495.324872,112.778746 495.324872,113.881881 495.324872,115.004201 C495.324872,115.42627 495.296024,116.049781 495.238328,116.807586 C494.844068,121.862821 493.09394,133.316238 489.6033,137.85348 C486.228053,142.160502 481.545019,144.529843 474.26564,143.522633 C464.130284,142.150909 455.552733,132.299436 455.552733,113.33511 C455.552733,90.975047 463.351381,83.5600627 467.515147,78.9460815 C474.26564,76.3465204 469.072953,63.5789342 462.312843,62.4949843 C456.591271,61.2 435.801289,79.761442 435.801289,113.824326 C435.801289,116.519812 435.964763,119.138558 436.282094,121.680564 C431.070174,134.860627 423.579242,145.134169 415.270942,154.208652 L415.270942,90.8983072 C415.270942,85.3346708 409.809004,80.8070219 401.231454,81.4401254 C397.586956,81.7087147 394.471344,83.6751724 394.471344,86.0349216 C394.471344,87.6944201 395.509882,89.0085893 395.509882,93.5074608 L395.509882,120.222508 C393.692441,129.901317 388.490137,143.119749 378.095147,145.038245 C369.315659,146.668966 363.690247,141.124514 363.31522,129.354545 C363.392148,129.076364 363.469077,128.798182 363.53639,128.529592 C363.796024,127.503197 363.80564,127.023574 363.796024,126.783762 C363.796024,125.977994 363.642167,125.191411 363.372916,124.424013 C364.921106,91.598558 387.115037,73.4495925 406.174123,72.6630094 C408.770467,72.5191223 411.36681,72.8740439 413.70352,72.7973041 C416.309479,72.7109718 417.088382,71.3104702 417.088382,67.3583699 C417.088382,61.3342947 412.145713,57.6220063 405.125969,57.938558 C373.421728,59.0800627 343.265677,90.3323511 343.265677,131.69511 C343.265677,135.512915 343.621472,139.062132 344.31383,142.304389 C341.457852,149.86326 337.28447,156.587586 331.053245,158.275862 C324.293136,160.108025 324.293136,150.87047 324.293136,148.616238 L324.293136,96.8840125 C324.293136,85.4305956 320.12937,72.4807524 302.714635,76.3752978 C289.982935,79.2530408 280.626481,92.5194357 273.606737,108.855423 L273.606737,97.1717868 C273.606737,90.9558621 268.144799,87.0805016 259.567249,89.0853292 C255.932368,89.9390596 252.807139,92.5098433 252.807139,95.1477743 C252.807139,96.9895298 253.855293,98.322884 253.855293,103.320564 L253.855293,149.019122 C253.432185,150.112665 253.07639,151.369279 252.816755,152.827335 C250.47043,165.038558 245.797011,183.350596 235.392404,186.362633 C228.641911,188.290721 228.641911,178.352915 228.641911,175.945204 L228.641911,107.886583 C228.641911,101.459624 223.179973,97.3060815 214.602423,98.9943574 C210.967541,99.7137931 207.842313,102.207837 207.842313,104.922508 C207.842313,106.831411 208.88085,108.26069 208.88085,113.421442 L208.88085,185.959749 C208.88085,199.83047 216.939132,209.432539 230.718986,205.346144 C240.642788,202.353292 248.162569,195.379561 253.855293,186.947774 C253.96107,196.492288 261.16352,196.060627 266.327359,194.429906 C273.866371,192.050972 273.606737,185.911787 273.606737,180.981254 L273.606737,143.100564 C275.424178,121.977931 291.540741,95.7329154 299.079754,94.0062696 C304.012807,92.826395 304.532075,99.2917241 304.532075,107.157555 L304.532075,158.640376 C304.532075,171.628589 312.590357,180.002821 326.370211,176.002759 C337.409479,172.818056 345.525457,165.307147 351.448967,156.501254 C356.641655,161.662006 364.257596,163.753166 374.200631,161.642821 C383.29745,159.781881 390.317194,154.793793 395.509882,149.306897 L395.509882,174.141818 C378.354781,190.65047 363.276755,207.139937 363.276755,231.658307 C363.276755,247.265266 373.681362,256.358934 388.230503,252.704201 C401.491088,249.337241 415.270942,238.353856 415.270942,214.017743 L415.270942,173.758119 C425.079351,164.971411 435.397414,155.599561 443.734562,142.054984 C449.888858,150.745768 459.754964,156.616364 473.746371,158.084013 C488.564763,159.916176 498.440485,156.079185 504.94096,148.625831 C512.537669,139.186834 514.037779,125.316113 514.037779,117.392727 C514.037779,117.200878 514.037779,116.999436 514.028163,116.807586 C513.980083,110.380627 512.970393,104.11674 511.239498,98.4284013 C514.816682,94.8120376 518.711198,90.5242006 522.951893,85.4689655 C532.673757,73.9004389 512.374196,69.0082759 510.931783,76.9988088" id="Fill-5"></path>
            </g>
        </g>
    </g>
</svg>